<?xml version="1.0" encoding="UTF-8" standalone="no"?>
<!-- Uploaded to: SVG Repo, www.svgrepo.com, Generator: SVG Repo Mixer Tools -->

<svg
   width="800px"
   height="800px"
   viewBox="0 0 21 21"
   version="1.1"
   id="svg2"
   sodipodi:docname="open2.svg"
   inkscape:version="1.3.1 (9b9bdc1480, 2023-11-25, custom)"
   xmlns:inkscape="http://www.inkscape.org/namespaces/inkscape"
   xmlns:sodipodi="http://sodipodi.sourceforge.net/DTD/sodipodi-0.dtd"
   xmlns="http://www.w3.org/2000/svg"
   xmlns:svg="http://www.w3.org/2000/svg">
  <defs
     id="defs2" />
  <sodipodi:namedview
     id="namedview2"
     pagecolor="#ffffff"
     bordercolor="#000000"
     borderopacity="0.25"
     inkscape:showpageshadow="2"
     inkscape:pageopacity="0.0"
     inkscape:pagecheckerboard="0"
     inkscape:deskcolor="#d1d1d1"
     inkscape:zoom="1.6175"
     inkscape:cx="400"
     inkscape:cy="400"
     inkscape:window-width="2560"
     inkscape:window-height="1536"
     inkscape:window-x="0"
     inkscape:window-y="27"
     inkscape:window-maximized="1"
     inkscape:current-layer="svg2" />
  <g
     fill="none"
     fill-rule="evenodd"
     stroke="#000000"
     stroke-linecap="round"
     stroke-linejoin="round"
     transform="matrix(1.2701239,0,0,1.2701239,-0.29598483,2.2441944)"
     id="g2">
    <path
       d="M 15.5,4.5 C 15.500802,3.3926229 14.605372,2.4971924 13.500802,2.4971924 L 8.5,2.5 l -2,-2 h -4 c -0.5522848,0 -1,0.44771525 -1,1 V 2.4971924 4.5"
       id="path1" />
    <path
       d="M 0.81056316,5.7417784 2.1212864,10.985039 C 2.3438582,11.875389 3.1438318,12.5 4.0615794,12.5 h 8.8766776 c 0.917797,0 1.7178,-0.624677 1.940325,-1.515089 L 16.189393,5.7398277 C 16.323297,5.2040218 15.997492,4.6611142 15.461686,4.5272097 15.382345,4.5073814 15.300871,4.4973722 15.21909,4.4973722 l -13.4385207,0.00189 c -0.5522848,7.75e-5 -0.99985962,0.4478556 -0.99985962,1.0001403 0,0.081709 0.0100374,0.1631092 0.0298535,0.2423792 z"
       id="path2" />
  </g>
</svg>
